<svg xmlns="http://www.w3.org/2000/svg" xmlns:xlink="http://www.w3.org/1999/xlink" width="640" zoomAndPan="magnify" viewBox="0 0 480 330.749987" height="441" preserveAspectRatio="xMidYMid meet" version="1.0"><defs><g/></defs><g fill="#ffc93c" fill-opacity="1"><g transform="translate(60.456885, 236.706636)"><g><path d="M 10.671875 -2.90625 L 10.671875 -139.90625 C 10.671875 -141.832031 11.640625 -142.796875 13.578125 -142.796875 L 90.171875 -142.796875 C 92.097656 -142.796875 93.0625 -141.832031 93.0625 -139.90625 L 93.0625 -136.546875 C 93.0625 -134.609375 94.03125 -133.640625 95.96875 -133.640625 L 99.3125 -133.640625 C 101.25 -133.640625 102.21875 -132.675781 102.21875 -130.75 L 102.21875 -127.390625 C 102.21875 -125.453125 103.179688 -124.484375 105.109375 -124.484375 L 108.46875 -124.484375 C 110.40625 -124.484375 111.375 -123.519531 111.375 -121.59375 L 111.375 -78.265625 C 111.375 -76.328125 110.40625 -75.359375 108.46875 -75.359375 L 105.109375 -75.359375 C 103.179688 -75.359375 102.21875 -74.394531 102.21875 -72.46875 L 102.21875 -69.109375 C 102.21875 -67.179688 101.25 -66.21875 99.3125 -66.21875 L 73.078125 -66.21875 C 71.140625 -66.21875 70.171875 -65.25 70.171875 -63.3125 L 70.171875 -59.953125 C 70.171875 -58.023438 69.207031 -57.0625 67.28125 -57.0625 L 54.765625 -57.0625 C 52.835938 -57.0625 51.875 -56.09375 51.875 -54.15625 L 51.875 -2.90625 C 51.875 -0.96875 50.90625 0 48.96875 0 L 13.578125 0 C 11.640625 0 10.671875 -0.96875 10.671875 -2.90625 Z M 51.875 -130.75 L 51.875 -69.109375 C 51.875 -67.179688 52.835938 -66.21875 54.765625 -66.21875 L 58.125 -66.21875 C 60.0625 -66.21875 61.03125 -67.179688 61.03125 -69.109375 L 61.03125 -72.46875 C 61.03125 -74.394531 61.992188 -75.359375 63.921875 -75.359375 L 67.28125 -75.359375 C 69.207031 -75.359375 70.171875 -76.328125 70.171875 -78.265625 L 70.171875 -121.59375 C 70.171875 -123.519531 69.207031 -124.484375 67.28125 -124.484375 L 63.921875 -124.484375 C 61.992188 -124.484375 61.03125 -125.453125 61.03125 -127.390625 L 61.03125 -130.75 C 61.03125 -132.675781 60.0625 -133.640625 58.125 -133.640625 L 54.765625 -133.640625 C 52.835938 -133.640625 51.875 -132.675781 51.875 -130.75 Z M 51.875 -130.75 "/></g></g></g><g fill="#ffc93c" fill-opacity="1"><g transform="translate(174.878136, 236.706636)"><g><path d="M 10.671875 -2.90625 L 10.671875 -103.28125 C 10.671875 -105.21875 11.640625 -106.1875 13.578125 -106.1875 L 18.609375 -106.1875 C 20.546875 -106.1875 21.515625 -107.148438 21.515625 -109.078125 L 21.515625 -112.4375 C 21.515625 -114.375 22.476562 -115.34375 24.40625 -115.34375 L 27.765625 -115.34375 C 29.703125 -115.34375 30.671875 -116.304688 30.671875 -118.234375 L 30.671875 -121.59375 C 30.671875 -123.519531 31.632812 -124.484375 33.5625 -124.484375 L 36.921875 -124.484375 C 38.847656 -124.484375 39.8125 -125.453125 39.8125 -127.390625 L 39.8125 -130.75 C 39.8125 -132.675781 40.78125 -133.640625 42.71875 -133.640625 L 44.25 -133.640625 C 46.175781 -133.640625 47.140625 -134.609375 47.140625 -136.546875 L 47.140625 -139.90625 C 47.140625 -141.832031 48.109375 -142.796875 50.046875 -142.796875 L 99.3125 -142.796875 C 101.25 -142.796875 102.21875 -141.832031 102.21875 -139.90625 L 102.21875 -136.546875 C 102.21875 -134.609375 103.179688 -133.640625 105.109375 -133.640625 L 108.46875 -133.640625 C 110.40625 -133.640625 111.375 -132.675781 111.375 -130.75 L 111.375 -2.90625 C 111.375 -0.96875 110.40625 0 108.46875 0 L 73.078125 0 C 71.140625 0 70.171875 -0.96875 70.171875 -2.90625 L 70.171875 -51.40625 C 70.171875 -53.34375 69.207031 -54.3125 67.28125 -54.3125 L 63.921875 -54.3125 C 61.992188 -54.3125 61.03125 -53.34375 61.03125 -51.40625 L 61.03125 -48.0625 C 61.03125 -46.125 60.0625 -45.15625 58.125 -45.15625 L 54.765625 -45.15625 C 52.835938 -45.15625 51.875 -44.191406 51.875 -42.265625 L 51.875 -2.90625 C 51.875 -0.96875 50.90625 0 48.96875 0 L 13.578125 0 C 11.640625 0 10.671875 -0.96875 10.671875 -2.90625 Z M 54.765625 -62.546875 L 58.125 -62.546875 C 60.0625 -62.546875 61.03125 -63.515625 61.03125 -65.453125 L 61.03125 -68.8125 C 61.03125 -70.738281 61.992188 -71.703125 63.921875 -71.703125 L 67.28125 -71.703125 C 69.207031 -71.703125 70.171875 -72.671875 70.171875 -74.609375 L 70.171875 -130.75 C 70.171875 -132.675781 69.207031 -133.640625 67.28125 -133.640625 L 63.921875 -133.640625 C 61.992188 -133.640625 61.03125 -132.675781 61.03125 -130.75 L 61.03125 -127.390625 C 61.03125 -125.453125 60.0625 -124.484375 58.125 -124.484375 L 54.765625 -124.484375 C 52.835938 -124.484375 51.875 -123.519531 51.875 -121.59375 L 51.875 -65.453125 C 51.875 -63.515625 52.835938 -62.546875 54.765625 -62.546875 Z M 54.765625 -62.546875 "/></g></g></g><g fill="#ffc93c" fill-opacity="1"><g transform="translate(296.927455, 236.706636)"><g><path d="M 10.671875 -2.90625 L 10.671875 -139.90625 C 10.671875 -141.832031 11.640625 -142.796875 13.578125 -142.796875 L 21.65625 -142.796875 C 23.59375 -142.796875 24.5625 -141.832031 24.5625 -139.90625 L 24.5625 -136.546875 C 24.5625 -134.609375 25.53125 -133.640625 27.46875 -133.640625 L 30.8125 -133.640625 C 32.75 -133.640625 33.71875 -132.675781 33.71875 -130.75 L 33.71875 -127.390625 C 33.71875 -125.453125 34.679688 -124.484375 36.609375 -124.484375 L 39.96875 -124.484375 C 41.90625 -124.484375 42.875 -123.519531 42.875 -121.59375 L 42.875 -118.234375 C 42.875 -116.304688 43.835938 -115.34375 45.765625 -115.34375 L 49.125 -115.34375 C 51.0625 -115.34375 52.03125 -114.375 52.03125 -112.4375 L 52.03125 -109.078125 C 52.03125 -107.148438 52.992188 -106.1875 54.921875 -106.1875 L 58.28125 -106.1875 C 60.207031 -106.1875 61.171875 -105.21875 61.171875 -103.28125 L 61.171875 -99.921875 C 61.171875 -97.992188 62.140625 -97.03125 64.078125 -97.03125 L 67.4375 -97.03125 C 69.363281 -97.03125 70.328125 -96.0625 70.328125 -94.125 L 70.328125 -90.78125 C 70.328125 -88.84375 71.296875 -87.875 73.234375 -87.875 L 76.59375 -87.875 C 78.519531 -87.875 79.484375 -86.910156 79.484375 -84.984375 L 79.484375 -81.625 C 79.484375 -79.6875 80.453125 -78.71875 82.390625 -78.71875 L 85.734375 -78.71875 C 87.671875 -78.71875 88.640625 -79.6875 88.640625 -81.625 L 88.640625 -84.984375 C 88.640625 -86.910156 87.671875 -87.875 85.734375 -87.875 L 82.390625 -87.875 C 80.453125 -87.875 79.484375 -88.84375 79.484375 -90.78125 L 79.484375 -94.125 C 79.484375 -96.0625 78.519531 -97.03125 76.59375 -97.03125 L 73.234375 -97.03125 C 71.296875 -97.03125 70.328125 -97.992188 70.328125 -99.921875 L 70.328125 -139.90625 C 70.328125 -141.832031 71.296875 -142.796875 73.234375 -142.796875 L 108.625 -142.796875 C 110.550781 -142.796875 111.515625 -141.832031 111.515625 -139.90625 L 111.515625 -2.90625 C 111.515625 -0.96875 110.550781 0 108.625 0 L 73.234375 0 C 71.296875 0 70.328125 -0.96875 70.328125 -2.90625 L 70.328125 -75.828125 C 70.328125 -77.753906 69.363281 -78.71875 67.4375 -78.71875 L 64.078125 -78.71875 C 62.140625 -78.71875 61.171875 -79.6875 61.171875 -81.625 L 61.171875 -84.984375 C 61.171875 -86.910156 60.207031 -87.875 58.28125 -87.875 L 54.765625 -87.875 C 52.835938 -87.875 51.875 -86.910156 51.875 -84.984375 L 51.875 -2.90625 C 51.875 -0.96875 50.90625 0 48.96875 0 L 13.578125 0 C 11.640625 0 10.671875 -0.96875 10.671875 -2.90625 Z M 10.671875 -2.90625 "/></g></g></g></svg>